<svg xmlns:xlink="http://www.w3.org/1999/xlink" width="24" height="24" viewBox="0 0 24 24" fill="none" xmlns="http://www.w3.org/2000/svg"><path d="M18.8941 9.31648C18.8549 9.26435 18.804 9.2225 18.7457 9.19438C18.6874 9.16627 18.6233 9.15271 18.5588 9.15483H14.8882C14.5372 8.13212 14.1094 7.13836 13.6088 6.18232C13.2992 5.58004 12.9136 5.02153 12.4618 4.52094C12.2907 4.34155 12.0829 4.20262 11.8532 4.11399C11.6235 4.02535 11.3775 3.98918 11.1325 4.00803C10.8875 4.02688 10.6497 4.10029 10.4357 4.22306C10.2217 4.34583 10.0368 4.51497 9.89411 4.71851C9.56882 5.19676 9.29378 5.70845 9.07352 6.24518C8.66862 7.19362 8.31803 8.16513 8.02352 9.15483H4.44116C4.37667 9.15271 4.31261 9.16627 4.2543 9.19438C4.19599 9.2225 4.1451 9.26435 4.10586 9.31648C4.06244 9.3658 4.03103 9.42483 4.01417 9.48879C3.9973 9.55276 3.99547 9.61986 4.0088 9.68468L5.77352 19.626C5.79019 19.7307 5.84276 19.826 5.9219 19.8951C6.00104 19.9641 6.10164 20.0024 6.20587 20.0032H16.7941C16.8971 20.0028 16.9967 19.9658 17.0756 19.8985C17.1546 19.8313 17.208 19.7381 17.2265 19.635L18.9912 9.68468C19.0045 9.61986 19.0027 9.55276 18.9858 9.48879C18.969 9.42483 18.9376 9.3658 18.8941 9.31648ZM9.87647 6.62236C10.0732 6.14085 10.3217 5.68304 10.6176 5.25733C10.6824 5.15774 10.7682 5.07417 10.8688 5.01275C10.9694 4.95134 11.0822 4.91365 11.199 4.90246C11.3158 4.89126 11.4336 4.90683 11.5437 4.94804C11.6538 4.98925 11.7535 5.05505 11.8353 5.14059C12.232 5.58696 12.5729 6.08166 12.85 6.61338C13.2751 7.43346 13.6437 8.28266 13.9529 9.15483H8.94999C9.2156 8.28025 9.52482 7.42 9.87647 6.57746V6.62236ZM16.4059 19.1949H6.54999L4.97057 10.0529H7.74999C7.59117 10.5648 7.44117 11.1036 7.27352 11.6873C7.25746 11.7445 7.25272 11.8044 7.25959 11.8635C7.26646 11.9225 7.28479 11.9796 7.31352 12.0314C7.34226 12.0832 7.38082 12.1287 7.42697 12.1652C7.47311 12.2017 7.52593 12.2285 7.58234 12.2441C7.63738 12.2605 7.69507 12.2656 7.75206 12.2591C7.80905 12.2525 7.86419 12.2346 7.91428 12.2061C7.96437 12.1777 8.00841 12.1394 8.04382 12.0935C8.07924 12.0476 8.10533 11.995 8.12058 11.9388C8.3147 11.2473 8.49999 10.6276 8.66764 10.0529H14.2706C14.4647 10.6366 14.6677 11.2652 14.8794 11.9477C14.9145 12.0668 14.9947 12.1668 15.1022 12.2258C15.2098 12.2847 15.3359 12.2978 15.453 12.2621C15.57 12.2263 15.6682 12.1448 15.7261 12.0353C15.7841 11.9258 15.7969 11.7974 15.7618 11.6783C15.5853 11.1036 15.4088 10.5648 15.2412 10.0529H18.0647L16.4059 19.1949Z" fill="currentColor"></path></svg>