<svg xmlns:xlink="http://www.w3.org/1999/xlink" width="24" height="24" viewBox="0 0 24 24" fill="none" xmlns="http://www.w3.org/2000/svg"><path d="M15.4082 20C15.33 20 15.2525 19.9832 15.1806 19.9506C15.1087 19.918 15.0438 19.8703 14.9898 19.8105L8.2947 12.7445C8.20132 12.6466 8.1272 12.5301 8.07662 12.4018C8.02604 12.2735 8 12.1358 8 11.9968C8 11.8578 8.02604 11.7202 8.07662 11.5918C8.1272 11.4635 8.20132 11.3471 8.2947 11.2492L14.9898 4.1832C15.0447 4.12512 15.11 4.07905 15.1818 4.04761C15.2536 4.01618 15.3305 4 15.4082 4C15.4859 4 15.5629 4.01618 15.6347 4.04761C15.7065 4.07905 15.7717 4.12512 15.8267 4.1832C15.8816 4.24128 15.9252 4.31023 15.955 4.38612C15.9847 4.46201 16 4.54334 16 4.62548C16 4.70762 15.9847 4.78895 15.955 4.86484C15.9252 4.94073 15.8816 5.00968 15.8267 5.06776L9.28103 11.9968L15.8267 18.9259C15.9023 19.015 15.9524 19.1249 15.9711 19.2429C15.9899 19.3609 15.9766 19.4821 15.9328 19.5924C15.889 19.7027 15.8164 19.7976 15.7235 19.866C15.6307 19.9345 15.5213 19.9736 15.4082 19.9789V20Z" fill="#FFFFFF"></path></svg>