<svg xmlns:xlink="http://www.w3.org/1999/xlink" width="24" height="24" viewBox="0 0 24 24" fill="none" xmlns="http://www.w3.org/2000/svg"><path d="M12.6461 19.7265L13.0014 20.0783L12.6461 19.7265ZM11.3539 19.7265L11.7092 19.3748L11.3539 19.7265ZM17.5 9.94645C17.5 11.7844 16.6125 13.7379 15.4858 15.4637C14.3667 17.1778 13.0537 18.6041 12.2908 19.3748L13.0014 20.0783C13.7889 19.2829 15.1529 17.8029 16.3231 16.0104C17.4858 14.2295 18.5 12.076 18.5 9.94645H17.5ZM12 4.5C15.0418 4.5 17.5 6.94268 17.5 9.94645H18.5C18.5 6.38196 15.5856 3.5 12 3.5V4.5ZM6.5 9.94645C6.5 6.94268 8.9582 4.5 12 4.5V3.5C8.41438 3.5 5.5 6.38196 5.5 9.94645H6.5ZM11.7092 19.3748C10.9463 18.6041 9.63331 17.1778 8.51422 15.4637C7.38754 13.7379 6.5 11.7844 6.5 9.94645H5.5C5.5 12.076 6.51421 14.2295 7.67688 16.0104C8.84715 17.8029 10.2111 19.2829 10.9986 20.0783L11.7092 19.3748ZM12.2908 19.3748C12.1253 19.5419 11.8747 19.5419 11.7092 19.3748L10.9986 20.0783C11.5553 20.6407 12.4447 20.6407 13.0014 20.0783L12.2908 19.3748ZM14.0714 9.9465C14.0714 11.0736 13.1482 11.995 12 11.995V12.995C13.6921 12.995 15.0714 11.6343 15.0714 9.9465H14.0714ZM12 7.89802C13.1482 7.89802 14.0714 8.81938 14.0714 9.9465H15.0714C15.0714 8.25866 13.6921 6.89802 12 6.89802V7.89802ZM9.92856 9.9465C9.92856 8.81938 10.8517 7.89802 12 7.89802V6.89802C10.3079 6.89802 8.92856 8.25866 8.92856 9.9465H9.92856ZM12 11.995C10.8517 11.995 9.92856 11.0736 9.92856 9.9465H8.92856C8.92856 11.6343 10.3079 12.995 12 12.995V11.995Z" fill="#FFFFFF"></path></svg>