<svg xmlns:xlink="http://www.w3.org/1999/xlink" width="24" height="24" viewBox="0 0 24 24" fill="none" xmlns="http://www.w3.org/2000/svg" data-testid="empty"><path d="M11.7146 5.51791C11.2458 5.0361 10.6856 4.65352 10.067 4.39281C9.44844 4.1321 8.78408 3.99853 8.11321 4.00001C7.00951 4.00541 5.93704 4.36845 5.05543 5.03511C4.17383 5.70176 3.5302 6.6364 3.22036 7.6999C2.95042 8.59091 2.92805 9.53902 3.15565 10.4419C3.38325 11.3447 3.85219 12.168 4.51182 12.8228L11.1056 19.6323C11.3434 19.8679 11.664 20 11.9981 20C12.3322 20 12.6528 19.8679 12.8906 19.6323L19.5053 12.8228C20.1924 12.1331 20.669 11.2608 20.8792 10.3085C21.0893 9.35618 21.0243 8.36342 20.6918 7.44691C20.4128 6.62667 19.9294 5.89171 19.2876 5.31195C18.6459 4.73219 17.867 4.3269 17.0252 4.13463C16.1833 3.94236 15.3065 3.9695 14.478 4.21346C13.6496 4.45743 12.8971 4.91011 12.2921 5.52845L12.0191 5.83414L11.7041 5.51791H11.7146ZM11.5571 7.18339L12.0086 7.64719L12.4601 7.18339L13.216 6.4139C13.675 5.95518 14.2428 5.62143 14.8658 5.44413C15.4889 5.26684 16.1467 5.25185 16.7771 5.40058C17.4075 5.54932 17.9898 5.85687 18.469 6.29421C18.9482 6.73155 19.3085 7.28426 19.5158 7.90018C19.7589 8.59103 19.8021 9.33686 19.6404 10.0513C19.4788 10.7658 19.1189 11.4197 18.6024 11.9374L12.0191 18.7468L5.41479 11.9479C4.8709 11.4048 4.49887 10.7125 4.34536 9.95786C4.19185 9.20326 4.2637 8.41995 4.5519 7.70619C4.8401 6.99243 5.33181 6.37999 5.96537 5.94569C6.59892 5.51139 7.34611 5.27457 8.11321 5.26493C8.61614 5.26267 9.11436 5.36234 9.57803 5.55795C10.0417 5.75356 10.4613 6.04111 10.8116 6.40336L11.5676 7.18339" fill="currentColor"></path></svg>