<svg xmlns:xlink="http://www.w3.org/1999/xlink" width="24" height="24" viewBox="0 0 24 24" fill="currentColor" xmlns="http://www.w3.org/2000/svg"><path d="M14.59 12.7801C15.5238 12.2146 16.2469 11.359 16.6488 10.3439C17.0508 9.32886 17.1094 8.21016 16.8158 7.15865C16.5223 6.10714 15.8926 5.18061 15.023 4.52055C14.1534 3.86049 13.0917 3.50317 12 3.50317C10.9083 3.50317 9.84656 3.86049 8.97698 4.52055C8.10739 5.18061 7.47774 6.10714 7.18417 7.15865C6.8906 8.21016 6.94925 9.32886 7.35116 10.3439C7.75308 11.359 8.47617 12.2146 9.41 12.7801C7.94638 13.3129 6.68183 14.2826 5.78752 15.5579C4.89322 16.8332 4.41235 18.3525 4.41 19.9101C4.41 20.0692 4.47322 20.2218 4.58574 20.3343C4.69826 20.4469 4.85087 20.5101 5.01 20.5101C5.16913 20.5101 5.32175 20.4469 5.43427 20.3343C5.54679 20.2218 5.61 20.0692 5.61 19.9101C5.61 18.2153 6.28323 16.59 7.48159 15.3917C8.67995 14.1933 10.3053 13.5201 12 13.5201C13.6947 13.5201 15.3201 14.1933 16.5184 15.3917C17.7168 16.59 18.39 18.2153 18.39 19.9101C18.39 19.9889 18.4055 20.0669 18.4357 20.1397C18.4658 20.2125 18.51 20.2786 18.5657 20.3343C18.6215 20.3901 18.6876 20.4342 18.7604 20.4644C18.8332 20.4946 18.9112 20.5101 18.99 20.5101C19.0688 20.5101 19.1468 20.4946 19.2196 20.4644C19.2924 20.4342 19.3586 20.3901 19.4143 20.3343C19.47 20.2786 19.5142 20.2125 19.5443 20.1397C19.5745 20.0669 19.59 19.9889 19.59 19.9101C19.5877 18.3525 19.1068 16.8332 18.2125 15.5579C17.3182 14.2826 16.0536 13.3129 14.59 12.7801ZM8.16 8.48008C8.16 7.7206 8.38522 6.97817 8.80716 6.34669C9.2291 5.7152 9.82883 5.22302 10.5305 4.93238C11.2322 4.64174 12.0043 4.56569 12.7492 4.71386C13.494 4.86203 14.1783 5.22775 14.7153 5.76479C15.2523 6.30182 15.6181 6.98604 15.7662 7.73093C15.9144 8.47582 15.8383 9.24791 15.5477 9.94958C15.2571 10.6513 14.7649 11.251 14.1334 11.6729C13.5019 12.0949 12.7595 12.3201 12 12.3201C10.9816 12.3201 10.0049 11.9155 9.28471 11.1954C8.56457 10.4752 8.16 9.49851 8.16 8.48008Z" fill="currentColor"></path></svg>