<svg xmlns:xlink="http://www.w3.org/1999/xlink" width="24" height="24" viewBox="0 0 24 24" fill="none" xmlns="http://www.w3.org/2000/svg"><path d="M19.8271 19.047L15.6287 15.0642C16.6556 13.8448 17.2174 12.3067 17.216 10.7186C17.2285 8.95062 16.5323 7.25003 15.2802 5.99032C14.0281 4.7306 12.3225 4.01475 10.5381 4C8.78206 4.06474 7.11972 4.80141 5.90046 6.05518C4.68121 7.30895 4 8.98219 4 10.7232C4 12.4643 4.68121 14.1375 5.90046 15.3913C7.11972 16.645 8.78206 17.3817 10.5381 17.4464C12.1172 17.4481 13.6442 16.8865 14.8398 15.8645L19.0569 19.8473C19.164 19.9484 19.3073 20.0033 19.4553 19.9998C19.6032 19.9964 19.7437 19.9348 19.8458 19.8287C19.948 19.7225 20.0034 19.5806 19.9998 19.434C19.9963 19.2874 19.9342 19.1482 19.8271 19.047ZM4.97788 10.672C4.97775 9.20407 5.56115 7.7951 6.60179 6.75014C7.64243 5.70518 9.05657 5.10832 10.5381 5.08874C12.0327 5.08874 13.4661 5.67698 14.5229 6.72405C15.5797 7.77112 16.1735 9.19126 16.1735 10.672C16.1735 12.1528 15.5797 13.573 14.5229 14.62C13.4661 15.6671 12.0327 16.2553 10.5381 16.2553C9.06467 16.2359 7.65752 15.6455 6.61819 14.6105C5.57886 13.5756 4.99003 12.1785 4.97788 10.7186V10.672Z" fill="currentColor"></path></svg>