<svg xmlns:xlink="http://www.w3.org/1999/xlink" width="16" height="16" viewBox="0 0 16 16" fill="none" xmlns="http://www.w3.org/2000/svg"><rect width="16" height="16" fill="none"></rect><rect x="-5114" y="-685" width="8791" height="5503" stroke="#FFFFFF" stroke-width="10px" fill="none"></rect><rect width="1440" height="72" transform="translate(-1292 -28)" fill="none"></rect><circle cx="8" cy="8" r="7.5" stroke="#FFFFFF" fill="none"></circle><path d="M10.5 8C10.5 10.1651 10.1701 12.1029 9.65316 13.4813C9.39401 14.1723 9.0975 14.6969 8.79361 15.0396C8.4892 15.383 8.21987 15.5 8 15.5C7.78013 15.5 7.5108 15.383 7.20639 15.0396C6.9025 14.6969 6.60599 14.1723 6.34684 13.4813C5.82994 12.1029 5.5 10.1651 5.5 8C5.5 5.83494 5.82994 3.89713 6.34684 2.51871C6.60599 1.82765 6.9025 1.30314 7.20639 0.960383C7.5108 0.61704 7.78013 0.5 8 0.5C8.21987 0.5 8.4892 0.61704 8.79361 0.960383C9.0975 1.30314 9.39401 1.82765 9.65316 2.51871C10.1701 3.89713 10.5 5.83494 10.5 8Z" stroke="#FFFFFF" fill="none"></path><path d="M0.5 8H15.5" stroke="#FFFFFF" stroke-linecap="round" fill="none"></path></svg>